<?xml version="1.0" ?><svg xmlns="http://www.w3.org/2000/svg" id="Daffodil" viewBox="0 0 64 64"><defs><style>
      .cls-1 {
        stroke-width: 0px;
      }
    </style></defs><path class="cls-1" d="M49.83,32c6.52-4.48,8.09-13.93,8.16-14.34.07-.47-.19-.92-.63-1.09-.39-.15-9.31-3.49-16.42-.08-.6-7.9-7.98-14-8.31-14.27-.37-.29-.89-.29-1.26,0-.33.27-7.71,6.37-8.31,14.27-7.11-3.41-16.03-.07-16.42.08-.44.17-.7.62-.63,1.09.07.41,1.64,9.85,8.16,14.34-6.52,4.48-8.09,13.93-8.16,14.34-.07.47.19.92.63,1.09.26.1,4.3,1.62,9.07,1.62,2.4,0,4.97-.38,7.35-1.52.61,7.89,7.98,13.98,8.31,14.25.18.15.41.22.63.22s.45-.07.63-.22c.33-.27,7.7-6.36,8.31-14.25,2.38,1.14,4.95,1.52,7.35,1.52,4.77,0,8.81-1.52,9.07-1.62.44-.17.7-.62.63-1.09-.07-.41-1.64-9.85-8.16-14.34ZM22.99,27.6c-.28.59-.39,1.23-.34,1.87-2.44.07-4.61.54-6.51,1.41-.04-.02-.08-.04-.12-.06-5.3-3.08-7.32-10.23-7.87-12.65,2.37-.74,9.52-2.56,14.83.52,1.75,1.01,3.29,2.55,4.61,4.6-.65.08-1.28.33-1.81.75-.08.07-.15.14-.23.22-.03.03-.07.06-.1.09-.44.45-.76,1-.92,1.6-.67.37-1.2.94-1.54,1.65ZM39,46.5c0,6.15-5.17,11.48-7,13.17-1.83-1.69-7-7.01-7-13.17,0-1.96.52-4,1.56-6.08.41.19.84.3,1.29.33.5.58,1.17.99,1.94,1.16.26.06.53.09.8.09.49,0,.96-.1,1.41-.29.69.3,1.46.37,2.21.2.17-.04.34-.09.49-.15,1.24,1.93,2.68,3.48,4.3,4.62v.12ZM39.51,33.2c-.19.2-.3.46-.3.72,0,.1.02.21.06.32.15.43.13.9-.07,1.31-.19.4-.53.71-.94.85-.33.12-.58.4-.65.74-.01.03-.01.07-.02.11-.05.46-.27.86-.62,1.15-.34.27-.77.39-1.19.34-.39-.05-.78.14-.98.47-.23.39-.6.65-1.03.75-.42.09-.86.02-1.23-.22-.33-.22-.75-.21-1.09,0-.36.24-.8.31-1.22.22-.43-.1-.8-.36-1.03-.75-.19-.3-.51-.48-.86-.48-.04,0-.08,0-.12.01-.42.05-.85-.07-1.19-.34-.35-.29-.57-.69-.64-1.25-.07-.35-.31-.63-.65-.75-.41-.14-.75-.45-.94-.85-.2-.41-.22-.88-.07-1.31.13-.36.03-.77-.24-1.04-.66-.66-.66-1.74.04-2.44.24-.27.32-.66.2-1-.15-.43-.13-.9.07-1.31.19-.4.53-.71.94-.85.33-.12.58-.4.65-.74.01-.03.01-.07.02-.11.05-.46.27-.87.62-1.15.34-.27.77-.38,1.19-.34.38.05.78-.14.98-.47.23-.39.6-.65,1.03-.75.42-.09.86-.02,1.23.22.33.22.75.21,1.09,0,.36-.24.79-.32,1.22-.22.43.1.8.36,1.03.75.21.33.6.52.98.47.42-.05.85.07,1.19.34.35.29.57.69.64,1.25.07.35.31.63.65.75.41.14.75.45.94.85.2.41.22.88.07,1.31-.13.36-.03.77.24,1.04.66.66.66,1.74,0,2.4ZM47.98,30.81c-1.69.98-3.72,1.52-6.02,1.67.11-.9-.1-1.84-.65-2.63.14-.76.04-1.54-.3-2.25-.34-.71-.87-1.28-1.54-1.64-.1-.38-.26-.74-.47-1.06,1.1-2.07,1.75-4.14,1.94-6.16.02-.02.05-.04.08-.05,5.29-3.07,12.46-1.26,14.83-.52-.55,2.42-2.57,9.57-7.87,12.64Z"/><circle class="cls-1" cx="32" cy="32" r="5"/></svg>