<svg width="47" height="47" viewBox="0 0 47 47" fill="none" xmlns="http://www.w3.org/2000/svg">
<path d="M23.5 4.40625C19.7236 4.40625 16.032 5.52608 12.8921 7.62413C9.75214 9.72218 7.30484 12.7042 5.85968 16.1931C4.41452 19.6821 4.0364 23.5212 4.77314 27.225C5.50988 30.9288 7.32838 34.331 9.99869 37.0013C12.669 39.6716 16.0712 41.4901 19.775 42.2269C23.4788 42.9636 27.3179 42.5855 30.8069 41.1403C34.2958 39.6952 37.2778 37.2479 39.3759 34.1079C41.4739 30.968 42.5938 27.2764 42.5938 23.5C42.5884 18.4377 40.575 13.5842 36.9954 10.0046C33.4158 6.42497 28.5623 4.4116 23.5 4.40625ZM39.5883 22.0312H32.2758C32.0169 16.8062 30.3903 11.8473 27.6639 7.89453C30.857 8.75179 33.7112 10.5659 35.8428 13.0931C37.9745 15.6202 39.2816 18.7394 39.5883 22.0312ZM23.5 39.6361C20.0613 35.9146 17.9757 30.64 17.6672 24.9688H29.3328C29.0243 30.6363 26.9387 35.9146 23.5 39.6361ZM17.6672 22.0312C17.9757 16.3637 20.054 11.0854 23.5 7.36395C26.9387 11.0854 29.0243 16.36 29.3328 22.0312H17.6672ZM19.3361 7.89453C16.6097 11.8473 14.9831 16.8062 14.7242 22.0312H7.41169C7.71844 18.7394 9.02549 15.6202 11.1572 13.0931C13.2889 10.5659 16.143 8.75179 19.3361 7.89453ZM7.41169 24.9688H14.7242C14.9831 30.1938 16.6097 35.1527 19.3361 39.1055C16.143 38.2482 13.2889 36.4341 11.1572 33.9069C9.02549 31.3798 7.71844 28.2606 7.41169 24.9688ZM27.6639 39.1055C30.3903 35.1472 32.0169 30.1883 32.2758 24.9688H39.5883C39.2816 28.2606 37.9745 31.3798 35.8428 33.9069C33.7112 36.4341 30.857 38.2482 27.6639 39.1055Z" fill="#81B151"/>
</svg>
