<svg width="47" height="47" viewBox="0 0 47 47" fill="none" xmlns="http://www.w3.org/2000/svg">
<path d="M45.4638 7.32321C45.4428 6.96389 45.2906 6.62478 45.0361 6.37027C44.7816 6.11576 44.4425 5.96357 44.0832 5.94258C34.5803 5.3918 26.9502 8.28157 23.6712 13.6939C21.5048 17.2722 21.5085 21.6178 23.6418 25.7634C22.4275 27.2089 21.5401 28.8999 21.0403 30.7204L18.0532 27.7223C19.4889 24.7242 19.4339 21.5995 17.8696 19.0034C15.4462 15.0029 9.8521 12.8586 2.90675 13.2661C2.54743 13.2871 2.20832 13.4393 1.95381 13.6938C1.6993 13.9483 1.5471 14.2874 1.52612 14.6468C1.11671 21.5921 3.26292 27.1862 7.26343 29.6097C8.58358 30.4162 10.1006 30.8431 11.6476 30.8434C13.1493 30.8249 14.6275 30.4692 15.9731 29.8024L20.563 34.3923V39.6559C20.563 40.0454 20.7177 40.419 20.9931 40.6945C21.2686 40.9699 21.6422 41.1247 22.0317 41.1247C22.4212 41.1247 22.7948 40.9699 23.0703 40.6945C23.3457 40.419 23.5005 40.0454 23.5005 39.6559V34.2417C23.4939 31.9051 24.2891 29.637 25.7532 27.8159C27.6422 28.8032 29.7373 29.3315 31.8687 29.3581C33.9293 29.3648 35.9516 28.8018 37.7125 27.7315C43.1248 24.4562 46.0219 16.826 45.4638 7.32321ZM8.77807 27.0981C5.96175 25.3925 4.36815 21.3553 4.40671 16.1559C9.60608 16.1118 13.6433 17.7109 15.3489 20.5273C16.2393 21.996 16.3844 23.7089 15.8005 25.4733L11.319 20.9918C11.0413 20.7279 10.6716 20.583 10.2886 20.5879C9.90558 20.5928 9.53966 20.7472 9.26882 21.018C8.99798 21.2889 8.84365 21.6548 8.83875 22.0378C8.83385 22.4208 8.97875 22.7905 9.24257 23.0682L13.7241 27.5497C11.9598 28.1336 10.2487 27.9885 8.77807 27.0981ZM36.1905 25.2218C33.7303 26.7107 30.8387 26.8245 27.9012 25.589L37.7584 15.73C38.0222 15.4523 38.1671 15.0825 38.1622 14.6995C38.1573 14.3165 38.0029 13.9506 37.7321 13.6798C37.4613 13.4089 37.0953 13.2546 36.7123 13.2497C36.3293 13.2448 35.9596 13.3897 35.6819 13.6535L25.8229 23.4997C24.5818 20.5622 24.6938 17.6687 26.1901 15.2104C28.7494 10.9877 34.819 8.63407 42.5905 8.81583C42.7668 16.5855 40.4168 22.6625 36.1905 25.2218Z" fill="#81B151"/>
</svg>
