<svg width="47" height="47" viewBox="0 0 47 47" fill="none" xmlns="http://www.w3.org/2000/svg">
<mask id="mask0_111_63" style="mask-type:alpha" maskUnits="userSpaceOnUse" x="0" y="0" width="47" height="47">
<path d="M23.7364 26.496C23.6972 26.496 23.6385 26.496 23.5993 26.496C23.5406 26.496 23.4622 26.496 23.4035 26.496C18.9581 26.3589 15.6289 22.8927 15.6289 18.6235C15.6289 14.276 19.1735 10.7314 23.521 10.7314C27.8685 10.7314 31.4131 14.276 31.4131 18.6235C31.3935 22.9123 28.0447 26.3589 23.7952 26.496C23.756 26.496 23.756 26.496 23.7364 26.496ZM23.5014 13.6494C20.7597 13.6494 18.5468 15.8819 18.5468 18.6039C18.5468 21.2869 20.6422 23.4606 23.3056 23.5585C23.3643 23.5389 23.5602 23.5389 23.756 23.5585C26.3802 23.4214 28.4364 21.2673 28.456 18.6039C28.456 15.8819 26.2431 13.6494 23.5014 13.6494Z" fill="#292D32"/>
<path d="M23.5019 44.5517C18.234 44.5517 13.2011 42.5934 9.304 39.0292C8.9515 38.7159 8.79483 38.2459 8.834 37.7955C9.08858 35.465 10.5377 33.2913 12.9465 31.6855C18.7823 27.808 28.2411 27.808 34.0573 31.6855C36.4661 33.3109 37.9152 35.465 38.1698 37.7955C38.2286 38.2655 38.0523 38.7159 37.6998 39.0292C33.8027 42.5934 28.7698 44.5517 23.5019 44.5517ZM11.9086 37.4038C15.1594 40.1259 19.2523 41.6142 23.5019 41.6142C27.7515 41.6142 31.8444 40.1259 35.0952 37.4038C34.7427 36.2092 33.8027 35.0538 32.4123 34.1138C27.5948 30.9021 19.4286 30.9021 14.5719 34.1138C13.1815 35.0538 12.2611 36.2092 11.9086 37.4038Z" fill="#292D32"/>
<path d="M23.5013 44.5524C11.8884 44.5524 2.44922 35.1132 2.44922 23.5003C2.44922 11.8874 11.8884 2.44824 23.5013 2.44824C35.1142 2.44824 44.5534 11.8874 44.5534 23.5003C44.5534 35.1132 35.1142 44.5524 23.5013 44.5524ZM23.5013 5.38574C13.5138 5.38574 5.38672 13.5128 5.38672 23.5003C5.38672 33.4878 13.5138 41.6149 23.5013 41.6149C33.4888 41.6149 41.6159 33.4878 41.6159 23.5003C41.6159 13.5128 33.4888 5.38574 23.5013 5.38574Z" fill="#292D32"/>
</mask>
<g mask="url(#mask0_111_63)">
<rect width="47" height="47" fill="#81B151"/>
<path d="M23.7364 26.496C23.6972 26.496 23.6385 26.496 23.5993 26.496C23.5406 26.496 23.4622 26.496 23.4035 26.496C18.9581 26.3589 15.6289 22.8927 15.6289 18.6235C15.6289 14.276 19.1735 10.7314 23.521 10.7314C27.8685 10.7314 31.4131 14.276 31.4131 18.6235C31.3935 22.9123 28.0447 26.3589 23.7952 26.496C23.756 26.496 23.756 26.496 23.7364 26.496ZM23.5014 13.6494C20.7597 13.6494 18.5468 15.8819 18.5468 18.6039C18.5468 21.2869 20.6422 23.4606 23.3056 23.5585C23.3643 23.5389 23.5602 23.5389 23.756 23.5585C26.3802 23.4214 28.4364 21.2673 28.456 18.6039C28.456 15.8819 26.2431 13.6494 23.5014 13.6494Z" fill="#81B151"/>
<path d="M23.5019 44.5517C18.234 44.5517 13.2011 42.5934 9.304 39.0292C8.9515 38.7159 8.79483 38.2459 8.834 37.7955C9.08858 35.465 10.5377 33.2913 12.9465 31.6855C18.7823 27.808 28.2411 27.808 34.0573 31.6855C36.4661 33.3109 37.9152 35.465 38.1698 37.7955C38.2286 38.2655 38.0523 38.7159 37.6998 39.0292C33.8027 42.5934 28.7698 44.5517 23.5019 44.5517ZM11.9086 37.4038C15.1594 40.1259 19.2523 41.6142 23.5019 41.6142C27.7515 41.6142 31.8444 40.1259 35.0952 37.4038C34.7427 36.2092 33.8027 35.0538 32.4123 34.1138C27.5948 30.9021 19.4286 30.9021 14.5719 34.1138C13.1815 35.0538 12.2611 36.2092 11.9086 37.4038Z" fill="#81B151"/>
<path d="M23.5013 44.5524C11.8884 44.5524 2.44922 35.1132 2.44922 23.5003C2.44922 11.8874 11.8884 2.44824 23.5013 2.44824C35.1142 2.44824 44.5534 11.8874 44.5534 23.5003C44.5534 35.1132 35.1142 44.5524 23.5013 44.5524ZM23.5013 5.38574C13.5138 5.38574 5.38672 13.5128 5.38672 23.5003C5.38672 33.4878 13.5138 41.6149 23.5013 41.6149C33.4888 41.6149 41.6159 33.4878 41.6159 23.5003C41.6159 13.5128 33.4888 5.38574 23.5013 5.38574Z" fill="#81B151"/>
</g>
</svg>
