<svg width="27" height="35" viewBox="0 0 27 35" fill="none" xmlns="http://www.w3.org/2000/svg">
<path d="M13.5 0L11.8125 1.78615C11.8125 1.78615 8.9325 4.86938 6.03 8.86695C3.1275 12.8645 0 17.6488 0 22.2418C0 25.6255 1.42232 28.8706 3.95406 31.2632C6.4858 33.6558 9.91958 35 13.5 35C17.0804 35 20.5142 33.6558 23.0459 31.2632C25.5777 28.8706 27 25.6255 27 22.2418C27 17.6488 23.8725 12.8645 20.97 8.86695C19.1798 6.40936 17.2494 4.0456 15.1875 1.78615L13.5 0ZM13.5 6.65553C14.49 7.76124 15.39 8.67558 17.28 11.2697C20.0025 15.0122 22.5 19.7752 22.5 22.2418C22.5 26.9623 18.495 30.7473 13.5 30.7473C8.505 30.7473 4.5 26.9623 4.5 22.2418C4.5 19.7752 6.9975 15.0122 9.72 11.2697C11.61 8.67558 12.51 7.76124 13.5 6.65553Z" fill="#484848"/>
</svg>
