<svg width="18" height="30" viewBox="0 0 18 30" fill="none" xmlns="http://www.w3.org/2000/svg">
<path d="M16.3519 13.4593L4.42826 1.20039C4.23242 0.997028 3.99942 0.835614 3.74271 0.725461C3.48599 0.615307 3.21064 0.558594 2.93254 0.558594C2.65444 0.558594 2.37908 0.615307 2.12237 0.725461C1.86565 0.835614 1.63266 0.997028 1.43682 1.20039C1.04445 1.60692 0.824219 2.15683 0.824219 2.73004C0.824219 3.30325 1.04445 3.85317 1.43682 4.25969L11.8647 15.1083L1.43682 25.8484C1.04445 26.2549 0.824219 26.8048 0.824219 27.378C0.824219 27.9512 1.04445 28.5012 1.43682 28.9077C1.63192 29.1127 1.86459 29.2758 2.12134 29.3875C2.37809 29.4993 2.65381 29.5574 2.93254 29.5586C3.21126 29.5574 3.48699 29.4993 3.74374 29.3875C4.00048 29.2758 4.23315 29.1127 4.42826 28.9077L16.3519 16.6488C16.5657 16.4456 16.7364 16.199 16.8531 15.9245C16.9698 15.6501 17.0301 15.3537 17.0301 15.054C17.0301 14.7544 16.9698 14.458 16.8531 14.1835C16.7364 13.9091 16.5657 13.6625 16.3519 13.4593Z" fill="#484848"/>
</svg>
