<svg width="25" height="27" viewBox="0 0 25 27" fill="none" xmlns="http://www.w3.org/2000/svg">
<path d="M3.7569 0.961252L12.2445 10.25L20.6882 1.00938C20.8747 0.792124 21.0994 0.618327 21.3488 0.49841C21.5981 0.378493 21.8671 0.314927 22.1395 0.311523C22.7226 0.311523 23.2819 0.565054 23.6943 1.01634C24.1067 1.46763 24.3383 2.07971 24.3383 2.71793C24.3434 3.01296 24.2934 3.30602 24.1913 3.57913C24.0892 3.85225 23.9372 4.09965 23.7446 4.30615L15.191 13.5467L23.7446 22.9076C24.107 23.2957 24.3195 23.8211 24.3383 24.3755C24.3383 25.0138 24.1067 25.6258 23.6943 26.0771C23.2819 26.5284 22.7226 26.782 22.1395 26.782C21.8592 26.7947 21.5796 26.7435 21.3184 26.6316C21.0572 26.5198 20.8202 26.3497 20.6222 26.1322L12.2445 16.8435L3.77888 26.1082C3.59309 26.3182 3.37114 26.4858 3.12582 26.6015C2.88051 26.7171 2.6167 26.7785 2.34962 26.782C1.76644 26.782 1.20715 26.5284 0.794782 26.0771C0.382414 25.6258 0.150748 25.0138 0.150748 24.3755C0.145622 24.0805 0.195639 23.7875 0.297732 23.5143C0.399824 23.2412 0.551838 22.9938 0.744443 22.7873L9.29805 13.5467L0.744443 4.18583C0.382036 3.79782 0.169526 3.27239 0.150748 2.71793C0.150748 2.07971 0.382414 1.46763 0.794782 1.01634C1.20715 0.565054 1.76644 0.311523 2.34962 0.311523C2.87735 0.318743 3.38309 0.552164 3.7569 0.961252Z" fill="#484848"/>
</svg>
